HIERARCHY
ROOT Hips
{
  OFFSET -21.6994 31.6921 0
  CHANNELS 6 Xposition Yposition Zposition Zrotation Xrotation Yrotation
  JOINT Bip01_Pelvis
  {
    OFFSET 0 0 0
    CHANNELS 6 Xposition Yposition Zposition Zrotation Xrotation Yrotation
    JOINT BN_Tail_01
    {
      OFFSET -7.25226 -1.74978 0
      CHANNELS 6 Xposition Yposition Zposition Zrotation Xrotation Yrotation
      JOINT BN_Tail_02
      {
        OFFSET 15.788 0 0
        CHANNELS 6 Xposition Yposition Zposition Zrotation Xrotation Yrotation
        JOINT BN_Tail_03
        {
          OFFSET 16.0015 0 0
          CHANNELS 6 Xposition Yposition Zposition Zrotation Xrotation Yrotation
          JOINT BN_Tail_04
          {
            OFFSET 16.1689 0 0
            CHANNELS 6 Xposition Yposition Zposition Zrotation Xrotation Yrotation
            End Site
            {
              OFFSET 0 0 0
            }
          }
        }
      }
    }
    JOINT Bip01_Spine
    {
      OFFSET 6.38383 2.70859 0.585432
      CHANNELS 6 Xposition Yposition Zposition Zrotation Xrotation Yrotation
      JOINT BN_Mane_02
      {
        OFFSET 6.12662 8.45826 0
        CHANNELS 6 Xposition Yposition Zposition Zrotation Xrotation Yrotation
        End Site
        {
          OFFSET 0 0 0
        }
      }
      JOINT Bip01_R_Thigh
      {
        OFFSET -7.04074 -2.18223 -5.47025
        CHANNELS 6 Xposition Yposition Zposition Zrotation Xrotation Yrotation
        JOINT Bip01_R_Calf
        {
          OFFSET 13.6591 0 0
          CHANNELS 6 Xposition Yposition Zposition Zrotation Xrotation Yrotation
          JOINT Bip01_R_HorseLink
          {
            OFFSET 9.07516 0 0
            CHANNELS 6 Xposition Yposition Zposition Zrotation Xrotation Yrotation
            JOINT Bip01_R_Foot
            {
              OFFSET 8.13856 0 0
              CHANNELS 6 Xposition Yposition Zposition Zrotation Xrotation Yrotation
              JOINT Bip01_R_Toe0
              {
                OFFSET 3.79737 6.30086 0
                CHANNELS 6 Xposition Yposition Zposition Zrotation Xrotation Yrotation
                JOINT Bip01_R_Toe0Nub
                {
                  OFFSET 0.838764 0 0
                  CHANNELS 6 Xposition Yposition Zposition Zrotation Xrotation Yrotation
                  End Site
                  {
                    OFFSET 0 0 0
                  }
                }
              }
            }
          }
        }
      }
      JOINT Bip01_L_Thigh
      {
        OFFSET -6.18667 -2.14873 5.3508
        CHANNELS 6 Xposition Yposition Zposition Zrotation Xrotation Yrotation
        JOINT Bip01_L_Calf
        {
          OFFSET 13.6591 0 0
          CHANNELS 6 Xposition Yposition Zposition Zrotation Xrotation Yrotation
          JOINT Bip01_L_HorseLink
          {
            OFFSET 9.07515 0 0
            CHANNELS 6 Xposition Yposition Zposition Zrotation Xrotation Yrotation
            JOINT Bip01_L_Foot
            {
              OFFSET 8.13856 0 0
              CHANNELS 6 Xposition Yposition Zposition Zrotation Xrotation Yrotation
              JOINT Bip01_L_Toe0
              {
                OFFSET 3.79737 6.30086 0
                CHANNELS 6 Xposition Yposition Zposition Zrotation Xrotation Yrotation
                JOINT Bip01_L_Toe0Nub
                {
                  OFFSET 0.838764 0 0
                  CHANNELS 6 Xposition Yposition Zposition Zrotation Xrotation Yrotation
                  End Site
                  {
                    OFFSET 0 0 0
                  }
                }
              }
            }
          }
        }
      }
      JOINT Bip01_Spine1
      {
        OFFSET 12.1687 -0.0105438 0
        CHANNELS 6 Xposition Yposition Zposition Zrotation Xrotation Yrotation
        JOINT BN_Mane_R_01
        {
          OFFSET -0.157498 5.09008 -6.54008
          CHANNELS 6 Xposition Yposition Zposition Zrotation Xrotation Yrotation
          End Site
          {
            OFFSET 0 0 0
          }
        }
        JOINT BN_Mane_R_02
        {
          OFFSET -0.1575 5.09007 6.54
          CHANNELS 6 Xposition Yposition Zposition Zrotation Xrotation Yrotation
          End Site
          {
            OFFSET 0 0 0
          }
        }
        JOINT BN_Mane_01
        {
          OFFSET 8.29709 8.50414 0
          CHANNELS 6 Xposition Yposition Zposition Zrotation Xrotation Yrotation
          End Site
          {
            OFFSET 0 0 0
          }
        }
        JOINT Bip01_Spine2
        {
          OFFSET 13.2802 -0.0100708 1.51992e-005
          CHANNELS 6 Xposition Yposition Zposition Zrotation Xrotation Yrotation
          JOINT Bip01_Neck
          {
            OFFSET 12.4891 -6.66662 0
            CHANNELS 6 Xposition Yposition Zposition Zrotation Xrotation Yrotation
            JOINT Bip01_R_Clavicle
            {
              OFFSET -7.4542 -2.82621 -1.17874
              CHANNELS 6 Xposition Yposition Zposition Zrotation Xrotation Yrotation
              JOINT Bip01_R_UpperArm
              {
                OFFSET 13.2557 0 0
                CHANNELS 6 Xposition Yposition Zposition Zrotation Xrotation Yrotation
                JOINT Bip01_R_Forearm
                {
                  OFFSET 12.8897 0 0
                  CHANNELS 6 Xposition Yposition Zposition Zrotation Xrotation Yrotation
                  JOINT Bip01_R_Hand
                  {
                    OFFSET 11.2622 0 0
                    CHANNELS 6 Xposition Yposition Zposition Zrotation Xrotation Yrotation
                    JOINT Bip01_R_Finger0
                    {
                      OFFSET 3.98015 -0.208661 -0.0949803
                      CHANNELS 6 Xposition Yposition Zposition Zrotation Xrotation Yrotation
                      JOINT Bip01_R_Finger0Nub
                      {
                        OFFSET 6.57561 0 0
                        CHANNELS 6 Xposition Yposition Zposition Zrotation Xrotation Yrotation
                        End Site
                        {
                          OFFSET 0 0 0
                        }
                      }
                    }
                  }
                }
              }
            }
            JOINT Bip01_L_Clavicle
            {
              OFFSET -7.4541 -2.82679 1.17708
              CHANNELS 6 Xposition Yposition Zposition Zrotation Xrotation Yrotation
              JOINT Bip01_L_UpperArm
              {
                OFFSET 13.2558 0 0
                CHANNELS 6 Xposition Yposition Zposition Zrotation Xrotation Yrotation
                JOINT Bip01_L_Forearm
                {
                  OFFSET 12.8897 0 0
                  CHANNELS 6 Xposition Yposition Zposition Zrotation Xrotation Yrotation
                  JOINT Bip01_L_Hand
                  {
                    OFFSET 11.2622 0 0
                    CHANNELS 6 Xposition Yposition Zposition Zrotation Xrotation Yrotation
                    JOINT Bip01_L_Finger0
                    {
                      OFFSET 3.98014 -0.20866 0.0949764
                      CHANNELS 6 Xposition Yposition Zposition Zrotation Xrotation Yrotation
                      JOINT Bip01_L_Finger0Nub
                      {
                        OFFSET 6.57562 0 0
                        CHANNELS 6 Xposition Yposition Zposition Zrotation Xrotation Yrotation
                        End Site
                        {
                          OFFSET 0 0 0
                        }
                      }
                    }
                  }
                }
              }
            }
            JOINT Bip01_Neck1
            {
              OFFSET 4.19352 -0.00332451 0
              CHANNELS 6 Xposition Yposition Zposition Zrotation Xrotation Yrotation
              JOINT Bip01_Head
              {
                OFFSET 4.17604 0.298252 0
                CHANNELS 6 Xposition Yposition Zposition Zrotation Xrotation Yrotation
                JOINT BN_Eye_R_01
                {
                  OFFSET 6.53258 -3.90694 -2.55361
                  CHANNELS 6 Xposition Yposition Zposition Zrotation Xrotation Yrotation
                  End Site
                  {
                    OFFSET 0 0 0
                  }
                }
                JOINT BN_Eye_L_01
                {
                  OFFSET 6.5326 -3.90694 2.55371
                  CHANNELS 6 Xposition Yposition Zposition Zrotation Xrotation Yrotation
                  End Site
                  {
                    OFFSET 0 0 0
                  }
                }
                JOINT BN_Ear_R_01
                {
                  OFFSET 1.75934 -4.1584 -4.45634
                  CHANNELS 6 Xposition Yposition Zposition Zrotation Xrotation Yrotation
                  End Site
                  {
                    OFFSET 0 0 0
                  }
                }
                JOINT BN_Ear_L_01
                {
                  OFFSET 1.75933 -4.15841 4.45616
                  CHANNELS 6 Xposition Yposition Zposition Zrotation Xrotation Yrotation
                  End Site
                  {
                    OFFSET 0 0 0
                  }
                }
                JOINT BN_Beard_L_01
                {
                  OFFSET 11.2964 -1.06183 2.32054
                  CHANNELS 6 Xposition Yposition Zposition Zrotation Xrotation Yrotation
                  End Site
                  {
                    OFFSET 0 0 0
                  }
                }
                JOINT BN_Beard_R_01
                {
                  OFFSET 11.2964 -1.06182 -2.32036
                  CHANNELS 6 Xposition Yposition Zposition Zrotation Xrotation Yrotation
                  End Site
                  {
                    OFFSET 0 0 0
                  }
                }
                JOINT BN_Mouth_0
                {
                  OFFSET 1.3149 1.30001 0
                  CHANNELS 6 Xposition Yposition Zposition Zrotation Xrotation Yrotation
                  End Site
                  {
                    OFFSET 0 0 0
                  }
                }
                JOINT Bip01_HeadNub
                {
                  OFFSET 12.6869 0 0
                  CHANNELS 6 Xposition Yposition Zposition Zrotation Xrotation Yrotation
                  End Site
                  {
                    OFFSET 0 0 0
                  }
                }
              }
            }
          }
        }
      }
    }
  }
}
MOTION
Frames:	4
Frame Time:	0.0333333
-21.6994 27.9295 0 -180 -90 -90 0 1.13687e-013 0 -89.9974 1.65211 -89.998 -7.25225 -1.74978 2.91038e-011 -29.129 10.7053 175.79 15.788 3.8147e-006 -9.53674e-007 -41.2179 20.3668 12.9498 16.0015 0 1.77636e-015 -42.0231 -3.58054 28.6145 16.1689 1.90735e-006 -3.8147e-006 -36.0002 -0.229429 30.8263 6.33245 2.89308 2.54004e-006 21.992 -2.06124e-012 -9.22341e-012 6.12663 8.45826 2.91038e-011 -88.9944 -0.0323181 -179.967 -6.95507 -0.311037 -5.42738 -90.5768 0.954022 173.83 13.6591 1.90735e-006 8.88178e-016 -41.5484 7.69042e-006 6.40697e-006 9.07515 -3.8147e-006 8.88178e-016 35.8068 8.17647e-006 -5.67995e-006 8.13856 3.8147e-006 -1.77636e-015 26.3825 3.07596 5.43334 3.79736 6.30086 1.77636e-015 89.9468 -2.7601e-011 4.71776e-013 0.83877 -5.55112e-017 0 -2.06416e-008 -7.14804e-011 -1.68037e-011 -6.95508 -0.311062 5.42738 -141.705 -2.31155 -176.828 13.6591 2.86102e-006 0 -90.011 -2.14624e-007 9.75735e-006 9.07516 0 8.88178e-016 61.8399 5.24534e-006 -8.659e-006 8.13855 -3.55271e-015 -8.88178e-016 -3.11 -12.8571 -4.00196 3.79737 6.30086 0 89.9995 6.72014e-005 -12.4979 0.838764 4.16334e-017 1.77636e-015 -179.96 0.000290336 -0.000252996 12.1681 -0.0104809 -2.91038e-011 -7.77667 -2.00048e-011 4.49608e-011 -0.157498 5.09008 -6.54008 -92.7406 -0.022027 -167.965 -0.157497 5.09006 6.54 87.255 -0.000390274 12.0139 8.2971 8.50413 2.91038e-011 -91.651 -0.0231628 -179.978 13.2792 -0.00986099 -2.91038e-011 -14.6228 8.59282e-011 4.30655e-011 12.4882 -6.66644 -1.016e-005 -19.6204 1.71625e-010 1.50045e-010 -6.45361 -4.6782 -1.17794 -160.428 -52.226 111.902 13.2557 3.8147e-006 -1.90735e-006 135.848 80.8846 -165.125 12.8897 0 9.53674e-007 -65.188 -7.07393e-006 -1.52588e-005 11.2622 -9.53674e-007 1.77636e-015 -94.1697 72.8762 125.921 3.98016 -0.208662 -0.0949746 2.06108 8.51483 -35.8328 6.57561 -2.38418e-007 -1.19209e-007 179.96 1.72968e-005 1.73012e-005 -6.45361 -4.6782 1.17789 -160.44 55.331 -93.644 13.2557 -3.55271e-015 0 69.3212 -12.879 93.6778 12.8897 -1.77636e-015 9.53674e-007 -121.349 2.56335e-006 -9.22617e-007 11.2623 9.53673e-007 -2.86102e-006 -29.8447 -84.2967 -50.9448 3.98015 -0.20866 0.0949726 14.2321 -11.4819 62.2536 6.57562 2.86102e-006 0 -1.29331e-007 -1.66047e-008 1.26406e-008 4.19499 -0.00312424 5.82077e-011 20.5971 -1.93641e-010 -5.14485e-011 4.17604 0.298252 -5.82077e-011 4.32702 2.72549e-011 -3.30099e-011 6.53259 -3.90694 -2.55361 133.025 18.1401 163.594 6.5326 -3.90695 2.55371 -46.976 18.1112 -16.4184 1.75934 -4.1584 -4.45634 24.7931 -39.7306 142.462 1.75933 -4.1584 4.45617 -155.196 -39.7317 -37.5282 11.2964 -1.06183 2.32054 151.28 -2.12726 -89.9983 11.2964 -1.06183 -2.32036 -28.7077 -2.13818 89.9962 1.31489 1.30001 2.03727e-010 -142.031 -0.0307617 -179.989 12.6869 3.55271e-015 2.91038e-011 -5.3724e-008 -1.47575e-010 3.05068e-011 
-23.1629 27.2863 0.181553 147.542 -89.712 -123.886 0 1.13687e-013 0 -90.0557 1.1462 -87.4381 -7.25225 -1.74978 2.91041e-011 -29.7989 10.8609 174.734 15.788 3.8147e-006 -9.53674e-007 -41.8684 21.0849 13.3931 16.0015 3.55271e-015 0 -44.319 -1.86655 27.9297 16.1689 1.90735e-006 -3.8147e-006 -36.3111 -0.218456 28.8056 6.3515 2.83623 0.28655 21.0468 -0.182266 -1.61966 6.12663 8.45826 8.51584e-009 -88.9944 -0.0323181 -179.967 -7.1053 -0.347418 -5.51628 -96.6259 2.57199 173.795 13.6591 1.90735e-006 7.99361e-015 -58.8921 5.33754e-006 8.39442e-006 9.07515 -3.8147e-006 -8.88178e-015 48.8107 1.4322e-005 -7.92207e-007 8.13856 3.8147e-006 8.88178e-016 22.7853 3.09407 5.23343 3.79736 6.30086 -9.69305e-011 89.8531 0.0982855 0.0300803 0.83877 3.27516e-015 0 -2.06416e-008 -7.14804e-011 -1.68037e-011 -6.79829 -0.381906 5.33403 -144.617 -1.94404 -176.092 13.6591 2.86102e-006 -5.32907e-015 -94.4678 -1.02213e-006 9.66402e-006 9.07516 -1.42109e-014 -8.88178e-016 63.1554 5.17253e-006 -8.81618e-006 8.13855 0 -8.88178e-016 -4.5392 -12.6321 -4.48121 3.79737 6.30086 -6.1069e-010 89.6228 -0.0014691 -12.4835 0.838764 -6.56419e-015 1.77636e-015 -179.96 0.000290336 -0.000252996 12.1681 -0.0104809 -3.96192e-011 -5.97176 0.0207447 -0.399044 -0.157498 5.09008 -6.54008 -92.7406 -0.0220269 -167.965 -0.157497 5.09006 6.54 87.255 -0.000389746 12.0139 8.2971 8.50413 3.21402e-009 -91.651 -0.0231781 -179.978 13.2792 -0.00986099 -3.27966e-011 -13.5533 -0.413205 -0.797564 12.4882 -6.66644 -1.01597e-005 -16.5036 -0.921374 1.22426 -6.67015 -4.30071 -1.39029 -161.689 -52.3616 114.525 13.2557 3.8147e-006 -1.90735e-006 175.163 79.7094 154.853 12.8897 0 9.53674e-007 -57.7124 -8.88981e-006 -1.40894e-005 11.2622 -9.53674e-007 -1.06581e-014 -95.5368 71.9889 125.398 3.98016 -0.208662 -0.0949746 1.61501 7.86939 -36.282 6.57561 -2.38418e-007 -1.19209e-007 179.96 1.72969e-005 1.73012e-005 -6.72056 -4.33864 0.964687 -165.576 54.7363 -90.8678 13.2557 1.59872e-014 -1.24345e-014 71.4479 -19.3911 92.3423 12.8897 -1.77636e-015 9.53674e-007 -123.322 2.77529e-006 -2.56664e-007 11.2623 9.53674e-007 -2.86102e-006 -30.3412 -86.7196 -56.0908 3.98015 -0.20866 0.0949726 14.4666 -11.6408 59.736 6.57562 2.86102e-006 -1.90958e-014 -1.29331e-007 -1.66047e-008 1.26406e-008 4.19499 -0.00312424 6.08834e-011 18.2455 -1.00244 -2.17073 4.17604 0.298252 -1.30904e-010 1.92814 1.53797 -1.11329 6.53259 -3.90694 -2.55361 133.025 18.1401 163.594 6.5326 -3.90695 2.55371 -46.976 18.1112 -16.4184 1.75934 -4.1584 -4.45634 24.7931 -39.7306 142.462 1.75933 -4.1584 4.45617 -155.196 -39.7317 -37.5282 11.2964 -1.06183 2.32054 151.28 -2.12742 -89.9983 11.2964 -1.06183 -2.32036 -28.7077 -2.13818 89.9962 1.31489 1.30001 -8.48968e-010 -142.522 -0.0310822 -179.99 12.6869 3.55271e-015 2.91047e-011 -5.3724e-008 -1.47575e-010 3.05059e-011 
-24.6715 26.6146 0.376405 138.781 -89.3324 -134.151 -3.55271e-015 1.13687e-013 0 -90.0559 0.507101 -84.6952 -7.25225 -1.74978 2.91047e-011 -30.6629 10.9925 173.648 15.788 3.8147e-006 -9.53674e-007 -42.9593 21.8032 14.0374 16.0015 0 1.77636e-015 -47.1202 0.316684 27.1244 16.1689 1.90735e-006 -3.8147e-006 -37.0361 0.0805531 25.4312 6.36124 2.76598 0.592811 20.0973 -0.361701 -3.29725 6.12663 8.45826 1.61978e-008 -88.9944 -0.0323181 -179.967 -7.25961 -0.373653 -5.61407 -101.138 4.14608 174.014 13.6591 1.90735e-006 1.42109e-014 -72.1941 3.1663e-006 9.45836e-006 9.07515 -3.8147e-006 -1.5099e-014 59.5151 -8.02323e-005 -5.89044e-005 8.13856 3.8147e-006 3.55271e-015 19.3385 3.32252 4.88456 3.79736 6.30086 -2.86111e-010 89.34 0.207619 0.125041 0.83877 -4.55191e-015 3.55271e-015 -2.06416e-008 -7.14805e-011 -1.68037e-011 -6.63474 -0.442057 5.22247 -147.36 -1.5295 -175.171 13.6591 2.86102e-006 -4.44089e-015 -98.0412 -1.64924e-006 9.52336e-006 9.07516 0 0 64.1363 5.15425e-006 -8.92791e-006 8.13855 -7.10543e-015 8.88178e-016 -5.9191 -12.2259 -4.89469 3.79737 6.30086 -2.18307e-009 88.9046 2.46518e-005 -12.49 0.838764 -9.4369e-016 1.77636e-015 -179.96 0.000290336 -0.000252996 12.1681 -0.0104809 -4.9137e-011 -4.13607 0.0303177 -0.839584 -0.157498 5.09008 -6.54008 -92.7406 -0.0220269 -167.965 -0.157497 5.09006 6.54 87.255 -0.000385512 12.0139 8.2971 8.50413 5.99617e-009 -91.651 -0.0231781 -179.977 13.2792 -0.00986099 -3.60227e-011 -12.6045 -0.908466 -1.69053 12.4882 -6.66644 -1.01585e-005 -13.1711 -1.85363 2.64945 -6.87056 -3.88364 -1.62387 -162.927 -52.6826 117.32 13.2557 3.8147e-006 -1.90735e-006 -159.718 74.7577 129.719 12.8897 -1.06581e-014 9.53674e-007 -48.6436 -1.09286e-005 -1.24625e-005 11.2622 -9.53674e-007 -7.10543e-015 -98.5252 71.1825 125.765 3.98015 -0.208662 -0.0949746 1.30748 7.42789 -36.59 6.57561 -2.38418e-007 -1.19209e-007 179.96 1.72969e-005 1.73012e-005 -6.97951 -3.95996 0.7282 -171.018 53.9631 -87.9118 13.2557 1.42109e-014 -2.13163e-014 73.755 -26.9393 91.4029 12.8897 -2.13163e-014 9.53674e-007 -124.583 2.46033e-006 1.96321e-007 11.2623 9.53674e-007 -2.86102e-006 -38.8866 -89.251 -69.3032 3.98015 -0.20866 0.0949726 14.7232 -11.828 56.9645 6.57562 2.86102e-006 -4.4853e-014 -1.29331e-007 -1.66047e-008 1.26406e-008 4.19499 -0.00312424 6.18489e-011 15.7977 -2.01861 -4.5776 4.17604 0.298252 -3.37758e-010 -0.724584 3.01518 -2.14946 6.53259 -3.90694 -2.55361 133.025 18.1401 163.594 6.5326 -3.90695 2.55371 -46.976 18.1112 -16.4184 1.75934 -4.1584 -4.45634 24.7931 -39.7306 142.462 1.75933 -4.1584 4.45617 -155.196 -39.7317 -37.5282 11.2964 -1.06183 2.32054 151.28 -2.12725 -89.9983 11.2964 -1.06183 -2.32036 -28.7077 -2.13818 89.9962 1.31489 1.30001 -2.17239e-009 -142.987 -0.0312805 -179.99 12.6869 3.55271e-015 2.91087e-011 -5.3724e-008 -1.47574e-010 3.05087e-011 
-26.2327 25.9153 0.581807 135.072 -88.8936 -139.424 0 1.13687e-013 3.55271e-015 -89.9971 -0.209093 -81.7784 -7.25225 -1.74978 2.91038e-011 -31.6636 11.0989 172.518 15.788 3.8147e-006 -9.53674e-007 -44.4106 22.5245 14.8633 16.0015 1.77636e-015 -5.32907e-015 -50.3199 2.93618 26.2315 16.1689 1.90735e-006 -3.8147e-006 -37.8915 0.526025 21.4406 6.35831 2.68527 0.918319 19.1262 -0.520493 -5.05872 6.12663 8.45826 2.34423e-008 -88.9944 -0.0323334 -179.967 -7.41952 -0.397435 -5.71683 -104.941 5.73958 174.423 13.6591 1.90735e-006 1.77636e-014 -83.4264 1.17013e-006 9.97922e-006 9.07515 -3.8147e-006 -1.77636e-014 69.059 0.00256305 0.000970059 8.13856 3.8147e-006 8.88178e-015 15.9735 3.72319 4.43772 3.79736 6.30086 -5.19009e-010 88.6434 0.322558 0.249221 0.83877 8.82627e-015 5.32907e-015 -2.06416e-008 -7.14804e-011 -1.68037e-011 -6.46184 -0.495664 5.09509 -150.238 -1.11068 -174.071 13.6591 2.86102e-006 -1.06581e-014 -101.005 -2.151e-006 9.35806e-006 9.07516 -1.06581e-014 -8.88178e-016 64.4295 5.25404e-006 -8.97577e-006 8.13855 -7.10543e-015 3.55271e-015 -7.34205 -11.6456 -5.31994 3.79737 6.30086 -3.81165e-009 88.1758 0.0015994 -12.4954 0.838764 -4.1217e-015 3.55271e-015 -179.96 0.000290336 -0.000252996 12.1681 -0.0104809 -5.81133e-011 -2.24326 0.0257242 -1.31385 -0.157498 5.09008 -6.54008 -92.7406 -0.0220269 -167.965 -0.157497 5.09006 6.54 87.255 -0.000390734 12.0139 8.2971 8.50413 8.69432e-009 -91.651 -0.0231934 -179.977 13.2792 -0.00986099 -3.91502e-011 -11.7174 -1.46559 -2.65625 12.4882 -6.66644 -1.01561e-005 -9.61957 -2.76571 4.25762 -7.04837 -3.42579 -1.87326 -163.83 -54.5494 119.545 13.2557 3.8147e-006 -1.90735e-006 -142.939 69.5449 116.114 12.8897 -2.13163e-014 9.53675e-007 -42.9785 -1.19611e-005 -1.11276e-005 11.2622 -9.53674e-007 -8.88179e-015 -97.1759 71.8581 125.022 3.98015 -0.208662 -0.0949746 2.73382 9.47066 -35.0206 6.57561 -2.38418e-007 -1.19209e-007 179.96 1.7297e-005 1.73006e-005 -7.22315 -3.53952 0.473324 -176.623 52.9688 -84.9229 13.2557 5.32907e-015 -1.77636e-015 76.2698 -35.5514 90.9647 12.8897 -4.44089e-015 9.53674e-007 -124.842 2.15093e-006 6.89166e-007 11.2623 9.53674e-007 -2.86102e-006 161.584 -88.0663 126.702 3.98015 -0.20866 0.0949726 14.9868 -12.0412 54.0054 6.57562 2.86102e-006 -4.84057e-014 -1.29331e-007 -1.66047e-008 1.26406e-008 4.19499 -0.00312424 6.07291e-011 13.2053 -3.01 -7.2001 4.17604 0.298252 -6.83211e-010 -3.63487 4.3395 -3.03322 6.53259 -3.90694 -2.55361 133.025 18.1402 163.594 6.5326 -3.90695 2.55371 -46.976 18.1112 -16.4184 1.75934 -4.1584 -4.45634 24.7931 -39.7306 142.462 1.75933 -4.1584 4.45617 -155.196 -39.7317 -37.5282 11.2964 -1.06183 2.32054 151.28 -2.12726 -89.9983 11.2964 -1.06183 -2.32036 -28.7077 -2.13818 89.9962 1.31489 1.30001 -3.71256e-009 -144.263 -0.0361176 -179.988 12.6869 -3.55271e-015 2.911e-011 -5.3724e-008 -1.47575e-010 3.05079e-011 
